<svg width="114" height="44" viewBox="0 0 114 44" fill="none" xmlns="http://www.w3.org/2000/svg">
<path d="M35.8438 19V5.90909H39.3977V11.2017H39.5767L43.5142 5.90909H47.6562L43.233 11.7386L47.7585 19H43.5142L40.5739 14.0909L39.3977 15.625V19H35.8438ZM56.4581 5.90909H60.0121V14.2955C60.0121 15.2926 59.7734 16.1555 59.2962 16.8842C58.8232 17.6087 58.1626 18.169 57.3146 18.5653C56.4666 18.9574 55.4822 19.1534 54.3615 19.1534C53.2322 19.1534 52.2436 18.9574 51.3956 18.5653C50.5476 18.169 49.8871 17.6087 49.4141 16.8842C48.9453 16.1555 48.7109 15.2926 48.7109 14.2955V5.90909H52.2649V13.9886C52.2649 14.3935 52.3544 14.7557 52.5334 15.0753C52.7124 15.3906 52.9595 15.6378 53.2749 15.8168C53.5945 15.9957 53.9567 16.0852 54.3615 16.0852C54.7706 16.0852 55.1328 15.9957 55.4482 15.8168C55.7635 15.6378 56.0107 15.3906 56.1896 15.0753C56.3686 14.7557 56.4581 14.3935 56.4581 13.9886V5.90909ZM73.0279 5.90909V19H70.062L65.3319 12.1222H65.2551V19H61.7012V5.90909H64.7182L69.3716 12.7614H69.4739V5.90909H73.0279ZM79.7459 19H74.709V5.90909H79.6948C81.0414 5.90909 82.2047 6.17116 83.1848 6.69531C84.1692 7.2152 84.9277 7.9652 85.4604 8.94531C85.9973 9.92116 86.2658 11.0909 86.2658 12.4545C86.2658 13.8182 85.9995 14.9901 85.4668 15.9702C84.9341 16.946 84.1799 17.696 83.204 18.2202C82.2282 18.7401 81.0755 19 79.7459 19ZM78.263 15.983H79.6181C80.2658 15.983 80.8176 15.8786 81.2736 15.6697C81.7338 15.4609 82.0833 15.1009 82.3219 14.5895C82.5648 14.0781 82.6863 13.3665 82.6863 12.4545C82.6863 11.5426 82.5627 10.831 82.3155 10.3196C82.0726 9.80824 81.7147 9.44815 81.2417 9.23935C80.7729 9.03054 80.1976 8.92614 79.5158 8.92614H78.263V15.983ZM100.592 12.4545C100.592 13.9119 100.309 15.1413 99.7418 16.1428C99.1751 17.1399 98.4102 17.8963 97.4471 18.4119C96.484 18.9233 95.4102 19.179 94.2255 19.179C93.0323 19.179 91.9542 18.9212 90.9911 18.4055C90.0323 17.8857 89.2695 17.1271 88.7028 16.13C88.1403 15.1286 87.859 13.9034 87.859 12.4545C87.859 10.9972 88.1403 9.76989 88.7028 8.77273C89.2695 7.77131 90.0323 7.01491 90.9911 6.50355C91.9542 5.98793 93.0323 5.73011 94.2255 5.73011C95.4102 5.73011 96.484 5.98793 97.4471 6.50355C98.4102 7.01491 99.1751 7.77131 99.7418 8.77273C100.309 9.76989 100.592 10.9972 100.592 12.4545ZM96.9357 12.4545C96.9357 11.6705 96.8313 11.0099 96.6225 10.473C96.418 9.93182 96.1133 9.52273 95.7085 9.24574C95.3079 8.96449 94.8136 8.82386 94.2255 8.82386C93.6374 8.82386 93.141 8.96449 92.7362 9.24574C92.3356 9.52273 92.0309 9.93182 91.8221 10.473C91.6175 11.0099 91.5153 11.6705 91.5153 12.4545C91.5153 13.2386 91.6175 13.9013 91.8221 14.4425C92.0309 14.9794 92.3356 15.3885 92.7362 15.6697C93.141 15.9467 93.6374 16.0852 94.2255 16.0852C94.8136 16.0852 95.3079 15.9467 95.7085 15.6697C96.1133 15.3885 96.418 14.9794 96.6225 14.4425C96.8313 13.9013 96.9357 13.2386 96.9357 12.4545Z" fill="white"/>
<path d="M35.7812 28V22.2891H36.4453V28H35.7812ZM39.9453 23.6406C40.4531 23.6406 40.8372 23.7656 41.0977 24.0156C41.3581 24.263 41.4883 24.6615 41.4883 25.2109V28H40.8477V25.2539C40.8477 24.8971 40.7656 24.6302 40.6016 24.4531C40.4401 24.276 40.1914 24.1875 39.8555 24.1875C39.3815 24.1875 39.0482 24.3216 38.8555 24.5898C38.6628 24.8581 38.5664 25.2474 38.5664 25.7578V28H37.918V23.7188H38.4414L38.5391 24.3359H38.5742C38.6654 24.1849 38.7812 24.0586 38.9219 23.957C39.0625 23.8529 39.2201 23.7747 39.3945 23.7227C39.569 23.668 39.7526 23.6406 39.9453 23.6406ZM44.7305 24.2266H43.6641V28H43.0156V24.2266H42.2578V23.9141L43.0156 23.6992V23.4141C43.0156 23.0547 43.069 22.763 43.1758 22.5391C43.2826 22.3125 43.4375 22.1458 43.6406 22.0391C43.8438 21.9323 44.0911 21.8789 44.3828 21.8789C44.5469 21.8789 44.6966 21.8932 44.832 21.9219C44.9701 21.9505 45.0911 21.9831 45.1953 22.0195L45.0273 22.5312C44.9388 22.5026 44.8385 22.4766 44.7266 22.4531C44.6172 22.4271 44.5052 22.4141 44.3906 22.4141C44.1432 22.4141 43.9596 22.4948 43.8398 22.6562C43.7227 22.8151 43.6641 23.0651 43.6641 23.4062V23.7188H44.7305V24.2266ZM49.2109 25.8516C49.2109 26.2031 49.1654 26.5169 49.0742 26.793C48.9831 27.069 48.8516 27.3021 48.6797 27.4922C48.5078 27.6823 48.2995 27.8281 48.0547 27.9297C47.8125 28.0286 47.5378 28.0781 47.2305 28.0781C46.944 28.0781 46.681 28.0286 46.4414 27.9297C46.2044 27.8281 45.9987 27.6823 45.8242 27.4922C45.6523 27.3021 45.5182 27.069 45.4219 26.793C45.3281 26.5169 45.2812 26.2031 45.2812 25.8516C45.2812 25.3828 45.3607 24.9844 45.5195 24.6562C45.6784 24.3255 45.9049 24.0742 46.1992 23.9023C46.4961 23.7279 46.849 23.6406 47.2578 23.6406C47.6484 23.6406 47.9896 23.7279 48.2812 23.9023C48.5755 24.0768 48.8034 24.3294 48.9648 24.6602C49.1289 24.9883 49.2109 25.3854 49.2109 25.8516ZM45.9531 25.8516C45.9531 26.1953 45.9987 26.4935 46.0898 26.7461C46.181 26.9987 46.3216 27.194 46.5117 27.332C46.7018 27.4701 46.9466 27.5391 47.2461 27.5391C47.543 27.5391 47.7865 27.4701 47.9766 27.332C48.1693 27.194 48.3112 26.9987 48.4023 26.7461C48.4935 26.4935 48.5391 26.1953 48.5391 25.8516C48.5391 25.5104 48.4935 25.2161 48.4023 24.9688C48.3112 24.7188 48.1706 24.526 47.9805 24.3906C47.7904 24.2552 47.5443 24.1875 47.2422 24.1875C46.7969 24.1875 46.4701 24.3346 46.2617 24.6289C46.056 24.9232 45.9531 25.3307 45.9531 25.8516ZM52.2773 23.6406C52.3633 23.6406 52.4531 23.6458 52.5469 23.6562C52.6406 23.6641 52.724 23.6758 52.7969 23.6914L52.7148 24.293C52.6445 24.2747 52.5664 24.2604 52.4805 24.25C52.3945 24.2396 52.3138 24.2344 52.2383 24.2344C52.0664 24.2344 51.9036 24.2695 51.75 24.3398C51.599 24.4076 51.4661 24.5065 51.3516 24.6367C51.237 24.7643 51.1471 24.9193 51.082 25.1016C51.0169 25.2812 50.9844 25.4818 50.9844 25.7031V28H50.332V23.7188H50.8711L50.9414 24.5078H50.9688C51.0573 24.349 51.1641 24.2044 51.2891 24.0742C51.4141 23.9414 51.5586 23.8359 51.7227 23.7578C51.8893 23.6797 52.0742 23.6406 52.2773 23.6406ZM58.2539 23.6406C58.7253 23.6406 59.0807 23.7643 59.3203 24.0117C59.5599 24.2565 59.6797 24.651 59.6797 25.1953V28H59.0391V25.2266C59.0391 24.8802 58.9635 24.6211 58.8125 24.4492C58.6641 24.2747 58.4427 24.1875 58.1484 24.1875C57.7344 24.1875 57.4336 24.3073 57.2461 24.5469C57.0586 24.7865 56.9648 25.1393 56.9648 25.6055V28H56.3203V25.2266C56.3203 24.9948 56.2865 24.8021 56.2188 24.6484C56.1536 24.4948 56.0547 24.3802 55.9219 24.3047C55.7917 24.2266 55.6263 24.1875 55.4258 24.1875C55.1419 24.1875 54.9141 24.2461 54.7422 24.3633C54.5703 24.4805 54.4453 24.6549 54.3672 24.8867C54.2917 25.1159 54.2539 25.3984 54.2539 25.7344V28H53.6055V23.7188H54.1289L54.2266 24.3242H54.2617C54.3477 24.1758 54.4557 24.0508 54.5859 23.9492C54.7161 23.8477 54.862 23.7708 55.0234 23.7188C55.1849 23.6667 55.3568 23.6406 55.5391 23.6406C55.8646 23.6406 56.1367 23.7018 56.3555 23.8242C56.5768 23.944 56.737 24.1276 56.8359 24.375H56.8711C57.0117 24.1276 57.2044 23.944 57.4492 23.8242C57.694 23.7018 57.9622 23.6406 58.2539 23.6406ZM62.6133 23.6484C63.1237 23.6484 63.5026 23.763 63.75 23.9922C63.9974 24.2214 64.1211 24.5872 64.1211 25.0898V28H63.6484L63.5234 27.3672H63.4922C63.3724 27.5234 63.2474 27.6549 63.1172 27.7617C62.987 27.8659 62.8359 27.9453 62.6641 28C62.4948 28.0521 62.2865 28.0781 62.0391 28.0781C61.7786 28.0781 61.5469 28.0326 61.3438 27.9414C61.1432 27.8503 60.9844 27.7122 60.8672 27.5273C60.7526 27.3424 60.6953 27.1081 60.6953 26.8242C60.6953 26.3971 60.8646 26.069 61.2031 25.8398C61.5417 25.6107 62.0573 25.4857 62.75 25.4648L63.4883 25.4336V25.1719C63.4883 24.8021 63.4089 24.543 63.25 24.3945C63.0911 24.2461 62.8672 24.1719 62.5781 24.1719C62.3542 24.1719 62.1406 24.2044 61.9375 24.2695C61.7344 24.3346 61.5417 24.4115 61.3594 24.5L61.1602 24.0078C61.3529 23.9089 61.5742 23.8242 61.8242 23.7539C62.0742 23.6836 62.3372 23.6484 62.6133 23.6484ZM63.4805 25.8906L62.8281 25.918C62.2943 25.9388 61.918 26.026 61.6992 26.1797C61.4805 26.3333 61.3711 26.5508 61.3711 26.832C61.3711 27.0768 61.4453 27.2578 61.5938 27.375C61.7422 27.4922 61.9388 27.5508 62.1836 27.5508C62.5638 27.5508 62.875 27.4453 63.1172 27.2344C63.3594 27.0234 63.4805 26.707 63.4805 26.2852V25.8906ZM66.8398 27.5469C66.9466 27.5469 67.056 27.5378 67.168 27.5195C67.2799 27.5013 67.3711 27.4792 67.4414 27.4531V27.957C67.3659 27.9909 67.2604 28.0195 67.125 28.043C66.9922 28.0664 66.862 28.0781 66.7344 28.0781C66.5078 28.0781 66.3021 28.0391 66.1172 27.9609C65.9323 27.8802 65.7839 27.7448 65.6719 27.5547C65.5625 27.3646 65.5078 27.1016 65.5078 26.7656V24.2266H64.8984V23.9102L65.5117 23.6562L65.7695 22.7266H66.1602V23.7188H67.4141V24.2266H66.1602V26.7461C66.1602 27.0143 66.2214 27.2148 66.3438 27.3477C66.4688 27.4805 66.6341 27.5469 66.8398 27.5469ZM68.957 23.7188V28H68.3086V23.7188H68.957ZM68.6406 22.1172C68.7474 22.1172 68.8385 22.1523 68.9141 22.2227C68.9922 22.2904 69.0312 22.3971 69.0312 22.543C69.0312 22.6862 68.9922 22.793 68.9141 22.8633C68.8385 22.9336 68.7474 22.9688 68.6406 22.9688C68.5286 22.9688 68.4349 22.9336 68.3594 22.8633C68.2865 22.793 68.25 22.6862 68.25 22.543C68.25 22.3971 68.2865 22.2904 68.3594 22.2227C68.4349 22.1523 68.5286 22.1172 68.6406 22.1172ZM74.0234 25.8516C74.0234 26.2031 73.9779 26.5169 73.8867 26.793C73.7956 27.069 73.6641 27.3021 73.4922 27.4922C73.3203 27.6823 73.112 27.8281 72.8672 27.9297C72.625 28.0286 72.3503 28.0781 72.043 28.0781C71.7565 28.0781 71.4935 28.0286 71.2539 27.9297C71.0169 27.8281 70.8112 27.6823 70.6367 27.4922C70.4648 27.3021 70.3307 27.069 70.2344 26.793C70.1406 26.5169 70.0938 26.2031 70.0938 25.8516C70.0938 25.3828 70.1732 24.9844 70.332 24.6562C70.4909 24.3255 70.7174 24.0742 71.0117 23.9023C71.3086 23.7279 71.6615 23.6406 72.0703 23.6406C72.4609 23.6406 72.8021 23.7279 73.0938 23.9023C73.388 24.0768 73.6159 24.3294 73.7773 24.6602C73.9414 24.9883 74.0234 25.3854 74.0234 25.8516ZM70.7656 25.8516C70.7656 26.1953 70.8112 26.4935 70.9023 26.7461C70.9935 26.9987 71.1341 27.194 71.3242 27.332C71.5143 27.4701 71.7591 27.5391 72.0586 27.5391C72.3555 27.5391 72.599 27.4701 72.7891 27.332C72.9818 27.194 73.1237 26.9987 73.2148 26.7461C73.306 26.4935 73.3516 26.1953 73.3516 25.8516C73.3516 25.5104 73.306 25.2161 73.2148 24.9688C73.1237 24.7188 72.9831 24.526 72.793 24.3906C72.6029 24.2552 72.3568 24.1875 72.0547 24.1875C71.6094 24.1875 71.2826 24.3346 71.0742 24.6289C70.8685 24.9232 70.7656 25.3307 70.7656 25.8516ZM77.1719 23.6406C77.6797 23.6406 78.0638 23.7656 78.3242 24.0156C78.5846 24.263 78.7148 24.6615 78.7148 25.2109V28H78.0742V25.2539C78.0742 24.8971 77.9922 24.6302 77.8281 24.4531C77.6667 24.276 77.418 24.1875 77.082 24.1875C76.6081 24.1875 76.2747 24.3216 76.082 24.5898C75.8893 24.8581 75.793 25.2474 75.793 25.7578V28H75.1445V23.7188H75.668L75.7656 24.3359H75.8008C75.8919 24.1849 76.0078 24.0586 76.1484 23.957C76.2891 23.8529 76.4466 23.7747 76.6211 23.7227C76.7956 23.668 76.9792 23.6406 77.1719 23.6406ZM38.293 39L36.375 33.9453H36.3438C36.3542 34.0521 36.3633 34.1823 36.3711 34.3359C36.3789 34.4896 36.3854 34.6576 36.3906 34.8398C36.3958 35.0195 36.3984 35.2031 36.3984 35.3906V39H35.7812V33.2891H36.7656L38.5742 38.0391H38.6016L40.4375 33.2891H41.4141V39H40.7578V35.3438C40.7578 35.1745 40.7604 35.0052 40.7656 34.8359C40.7708 34.6641 40.7773 34.5026 40.7852 34.3516C40.793 34.1979 40.8008 34.0651 40.8086 33.9531H40.7773L38.8359 39H38.293ZM44.4805 34.6484C44.9909 34.6484 45.3698 34.763 45.6172 34.9922C45.8646 35.2214 45.9883 35.5872 45.9883 36.0898V39H45.5156L45.3906 38.3672H45.3594C45.2396 38.5234 45.1146 38.6549 44.9844 38.7617C44.8542 38.8659 44.7031 38.9453 44.5312 39C44.362 39.0521 44.1536 39.0781 43.9062 39.0781C43.6458 39.0781 43.4141 39.0326 43.2109 38.9414C43.0104 38.8503 42.8516 38.7122 42.7344 38.5273C42.6198 38.3424 42.5625 38.1081 42.5625 37.8242C42.5625 37.3971 42.7318 37.069 43.0703 36.8398C43.4089 36.6107 43.9245 36.4857 44.6172 36.4648L45.3555 36.4336V36.1719C45.3555 35.8021 45.276 35.543 45.1172 35.3945C44.9583 35.2461 44.7344 35.1719 44.4453 35.1719C44.2214 35.1719 44.0078 35.2044 43.8047 35.2695C43.6016 35.3346 43.4089 35.4115 43.2266 35.5L43.0273 35.0078C43.2201 34.9089 43.4414 34.8242 43.6914 34.7539C43.9414 34.6836 44.2044 34.6484 44.4805 34.6484ZM45.3477 36.8906L44.6953 36.918C44.1615 36.9388 43.7852 37.026 43.5664 37.1797C43.3477 37.3333 43.2383 37.5508 43.2383 37.832C43.2383 38.0768 43.3125 38.2578 43.4609 38.375C43.6094 38.4922 43.806 38.5508 44.0508 38.5508C44.431 38.5508 44.7422 38.4453 44.9844 38.2344C45.2266 38.0234 45.3477 37.707 45.3477 37.2852V36.8906ZM49.3516 34.6406C49.8594 34.6406 50.2435 34.7656 50.5039 35.0156C50.7643 35.263 50.8945 35.6615 50.8945 36.2109V39H50.2539V36.2539C50.2539 35.8971 50.1719 35.6302 50.0078 35.4531C49.8464 35.276 49.5977 35.1875 49.2617 35.1875C48.7878 35.1875 48.4544 35.3216 48.2617 35.5898C48.069 35.8581 47.9727 36.2474 47.9727 36.7578V39H47.3242V34.7188H47.8477L47.9453 35.3359H47.9805C48.0716 35.1849 48.1875 35.0586 48.3281 34.957C48.4688 34.8529 48.6263 34.7747 48.8008 34.7227C48.9753 34.668 49.1589 34.6406 49.3516 34.6406ZM53.832 34.6484C54.3424 34.6484 54.7214 34.763 54.9688 34.9922C55.2161 35.2214 55.3398 35.5872 55.3398 36.0898V39H54.8672L54.7422 38.3672H54.7109C54.5911 38.5234 54.4661 38.6549 54.3359 38.7617C54.2057 38.8659 54.0547 38.9453 53.8828 39C53.7135 39.0521 53.5052 39.0781 53.2578 39.0781C52.9974 39.0781 52.7656 39.0326 52.5625 38.9414C52.362 38.8503 52.2031 38.7122 52.0859 38.5273C51.9714 38.3424 51.9141 38.1081 51.9141 37.8242C51.9141 37.3971 52.0833 37.069 52.4219 36.8398C52.7604 36.6107 53.276 36.4857 53.9688 36.4648L54.707 36.4336V36.1719C54.707 35.8021 54.6276 35.543 54.4688 35.3945C54.3099 35.2461 54.0859 35.1719 53.7969 35.1719C53.5729 35.1719 53.3594 35.2044 53.1562 35.2695C52.9531 35.3346 52.7604 35.4115 52.5781 35.5L52.3789 35.0078C52.5716 34.9089 52.793 34.8242 53.043 34.7539C53.293 34.6836 53.556 34.6484 53.832 34.6484ZM54.6992 36.8906L54.0469 36.918C53.513 36.9388 53.1367 37.026 52.918 37.1797C52.6992 37.3333 52.5898 37.5508 52.5898 37.832C52.5898 38.0768 52.6641 38.2578 52.8125 38.375C52.9609 38.4922 53.1576 38.5508 53.4023 38.5508C53.7826 38.5508 54.0938 38.4453 54.3359 38.2344C54.5781 38.0234 54.6992 37.707 54.6992 37.2852V36.8906ZM57.8711 40.9219C57.3086 40.9219 56.875 40.8164 56.5703 40.6055C56.2656 40.3971 56.1133 40.1042 56.1133 39.7266C56.1133 39.4583 56.1979 39.2292 56.3672 39.0391C56.5391 38.849 56.776 38.7227 57.0781 38.6602C56.9661 38.6081 56.8698 38.5299 56.7891 38.4258C56.7109 38.3216 56.6719 38.2018 56.6719 38.0664C56.6719 37.9102 56.7148 37.7734 56.8008 37.6562C56.8893 37.5365 57.0234 37.4219 57.2031 37.3125C56.9792 37.2214 56.7969 37.0677 56.6562 36.8516C56.5182 36.6328 56.4492 36.3789 56.4492 36.0898C56.4492 35.7826 56.513 35.5208 56.6406 35.3047C56.7682 35.0859 56.9531 34.9193 57.1953 34.8047C57.4375 34.6901 57.7305 34.6328 58.0742 34.6328C58.1497 34.6328 58.2253 34.6367 58.3008 34.6445C58.3789 34.6497 58.4531 34.6589 58.5234 34.6719C58.5938 34.6823 58.6549 34.6953 58.707 34.7109H60.1758V35.1289L59.3867 35.2266C59.4648 35.3281 59.5299 35.4505 59.582 35.5938C59.6341 35.737 59.6602 35.8958 59.6602 36.0703C59.6602 36.4974 59.5156 36.8372 59.2266 37.0898C58.9375 37.3398 58.5404 37.4648 58.0352 37.4648C57.9154 37.4648 57.793 37.4544 57.668 37.4336C57.5404 37.5039 57.4427 37.582 57.375 37.668C57.3099 37.7539 57.2773 37.8529 57.2773 37.9648C57.2773 38.0482 57.3021 38.1146 57.3516 38.1641C57.4036 38.2135 57.4779 38.25 57.5742 38.2734C57.6706 38.2943 57.7865 38.3047 57.9219 38.3047H58.6758C59.1419 38.3047 59.4987 38.4023 59.7461 38.5977C59.9961 38.793 60.1211 39.0781 60.1211 39.4531C60.1211 39.9271 59.9284 40.2904 59.543 40.543C59.1576 40.7956 58.6003 40.9219 57.8711 40.9219ZM57.8906 40.4141C58.2448 40.4141 58.5378 40.3776 58.7695 40.3047C59.0039 40.2344 59.1784 40.1315 59.293 39.9961C59.4102 39.8633 59.4688 39.7044 59.4688 39.5195C59.4688 39.3477 59.4297 39.2174 59.3516 39.1289C59.2734 39.043 59.1589 38.9857 59.0078 38.957C58.8568 38.9258 58.6719 38.9102 58.4531 38.9102H57.7109C57.5182 38.9102 57.3503 38.9401 57.207 39C57.0638 39.0599 56.9531 39.1484 56.875 39.2656C56.7995 39.3828 56.7617 39.5286 56.7617 39.7031C56.7617 39.9349 56.8594 40.1107 57.0547 40.2305C57.25 40.3529 57.5286 40.4141 57.8906 40.4141ZM58.0586 36.9922C58.3685 36.9922 58.6016 36.9141 58.7578 36.7578C58.9141 36.6016 58.9922 36.3737 58.9922 36.0742C58.9922 35.7539 58.9128 35.5143 58.7539 35.3555C58.5951 35.194 58.3607 35.1133 58.0508 35.1133C57.7539 35.1133 57.5247 35.1966 57.3633 35.3633C57.2044 35.5273 57.125 35.7682 57.125 36.0859C57.125 36.3776 57.2057 36.6016 57.3672 36.7578C57.5286 36.9141 57.7591 36.9922 58.0586 36.9922ZM62.668 34.6406C63.0326 34.6406 63.3451 34.7214 63.6055 34.8828C63.8659 35.0443 64.0651 35.2708 64.2031 35.5625C64.3411 35.8516 64.4102 36.1901 64.4102 36.5781V36.9805H61.4531C61.4609 37.4831 61.5859 37.8659 61.8281 38.1289C62.0703 38.3919 62.4115 38.5234 62.8516 38.5234C63.1224 38.5234 63.362 38.4987 63.5703 38.4492C63.7786 38.3997 63.9948 38.3268 64.2188 38.2305V38.8008C64.0026 38.8971 63.7878 38.9674 63.5742 39.0117C63.3633 39.056 63.1133 39.0781 62.8242 39.0781C62.4128 39.0781 62.0534 38.9948 61.7461 38.8281C61.4414 38.6589 61.2044 38.4115 61.0352 38.0859C60.8659 37.7604 60.7812 37.362 60.7812 36.8906C60.7812 36.4297 60.8581 36.0312 61.0117 35.6953C61.168 35.3568 61.3867 35.0964 61.668 34.9141C61.9518 34.7318 62.2852 34.6406 62.668 34.6406ZM62.6602 35.1719C62.3138 35.1719 62.0378 35.2852 61.832 35.5117C61.6263 35.7383 61.5039 36.0547 61.4648 36.4609H63.7305C63.7279 36.2057 63.6875 35.9818 63.6094 35.7891C63.5339 35.5938 63.418 35.4427 63.2617 35.3359C63.1055 35.2266 62.9049 35.1719 62.6602 35.1719ZM70.1602 34.6406C70.6315 34.6406 70.987 34.7643 71.2266 35.0117C71.4661 35.2565 71.5859 35.651 71.5859 36.1953V39H70.9453V36.2266C70.9453 35.8802 70.8698 35.6211 70.7188 35.4492C70.5703 35.2747 70.349 35.1875 70.0547 35.1875C69.6406 35.1875 69.3398 35.3073 69.1523 35.5469C68.9648 35.7865 68.8711 36.1393 68.8711 36.6055V39H68.2266V36.2266C68.2266 35.9948 68.1927 35.8021 68.125 35.6484C68.0599 35.4948 67.9609 35.3802 67.8281 35.3047C67.6979 35.2266 67.5326 35.1875 67.332 35.1875C67.0482 35.1875 66.8203 35.2461 66.6484 35.3633C66.4766 35.4805 66.3516 35.6549 66.2734 35.8867C66.1979 36.1159 66.1602 36.3984 66.1602 36.7344V39H65.5117V34.7188H66.0352L66.1328 35.3242H66.168C66.2539 35.1758 66.362 35.0508 66.4922 34.9492C66.6224 34.8477 66.7682 34.7708 66.9297 34.7188C67.0911 34.6667 67.263 34.6406 67.4453 34.6406C67.7708 34.6406 68.043 34.7018 68.2617 34.8242C68.4831 34.944 68.6432 35.1276 68.7422 35.375H68.7773C68.918 35.1276 69.1107 34.944 69.3555 34.8242C69.6003 34.7018 69.8685 34.6406 70.1602 34.6406ZM74.5664 34.6406C74.931 34.6406 75.2435 34.7214 75.5039 34.8828C75.7643 35.0443 75.9635 35.2708 76.1016 35.5625C76.2396 35.8516 76.3086 36.1901 76.3086 36.5781V36.9805H73.3516C73.3594 37.4831 73.4844 37.8659 73.7266 38.1289C73.9688 38.3919 74.3099 38.5234 74.75 38.5234C75.0208 38.5234 75.2604 38.4987 75.4688 38.4492C75.6771 38.3997 75.8932 38.3268 76.1172 38.2305V38.8008C75.901 38.8971 75.6862 38.9674 75.4727 39.0117C75.2617 39.056 75.0117 39.0781 74.7227 39.0781C74.3112 39.0781 73.9518 38.9948 73.6445 38.8281C73.3398 38.6589 73.1029 38.4115 72.9336 38.0859C72.7643 37.7604 72.6797 37.362 72.6797 36.8906C72.6797 36.4297 72.7565 36.0312 72.9102 35.6953C73.0664 35.3568 73.2852 35.0964 73.5664 34.9141C73.8503 34.7318 74.1836 34.6406 74.5664 34.6406ZM74.5586 35.1719C74.2122 35.1719 73.9362 35.2852 73.7305 35.5117C73.5247 35.7383 73.4023 36.0547 73.3633 36.4609H75.6289C75.6263 36.2057 75.5859 35.9818 75.5078 35.7891C75.4323 35.5938 75.3164 35.4427 75.1602 35.3359C75.0039 35.2266 74.8034 35.1719 74.5586 35.1719ZM79.4375 34.6406C79.9453 34.6406 80.3294 34.7656 80.5898 35.0156C80.8503 35.263 80.9805 35.6615 80.9805 36.2109V39H80.3398V36.2539C80.3398 35.8971 80.2578 35.6302 80.0938 35.4531C79.9323 35.276 79.6836 35.1875 79.3477 35.1875C78.8737 35.1875 78.5404 35.3216 78.3477 35.5898C78.1549 35.8581 78.0586 36.2474 78.0586 36.7578V39H77.4102V34.7188H77.9336L78.0312 35.3359H78.0664C78.1576 35.1849 78.2734 35.0586 78.4141 34.957C78.5547 34.8529 78.7122 34.7747 78.8867 34.7227C79.0612 34.668 79.2448 34.6406 79.4375 34.6406ZM83.6992 38.5469C83.806 38.5469 83.9154 38.5378 84.0273 38.5195C84.1393 38.5013 84.2305 38.4792 84.3008 38.4531V38.957C84.2253 38.9909 84.1198 39.0195 83.9844 39.043C83.8516 39.0664 83.7214 39.0781 83.5938 39.0781C83.3672 39.0781 83.1615 39.0391 82.9766 38.9609C82.7917 38.8802 82.6432 38.7448 82.5312 38.5547C82.4219 38.3646 82.3672 38.1016 82.3672 37.7656V35.2266H81.7578V34.9102L82.3711 34.6562L82.6289 33.7266H83.0195V34.7188H84.2734V35.2266H83.0195V37.7461C83.0195 38.0143 83.0807 38.2148 83.2031 38.3477C83.3281 38.4805 83.4935 38.5469 83.6992 38.5469ZM90.5664 37.4805C90.5664 37.819 90.4818 38.1081 90.3125 38.3477C90.1458 38.5846 89.9115 38.7656 89.6094 38.8906C89.3073 39.0156 88.9518 39.0781 88.543 39.0781C88.3268 39.0781 88.1224 39.0677 87.9297 39.0469C87.737 39.026 87.5599 38.9961 87.3984 38.957C87.237 38.918 87.0951 38.8698 86.9727 38.8125V38.1758C87.168 38.2565 87.4062 38.332 87.6875 38.4023C87.9688 38.4701 88.263 38.5039 88.5703 38.5039C88.8568 38.5039 89.099 38.4661 89.2969 38.3906C89.4948 38.3125 89.6445 38.2018 89.7461 38.0586C89.8503 37.9128 89.9023 37.7383 89.9023 37.5352C89.9023 37.3398 89.8594 37.1771 89.7734 37.0469C89.6875 36.9141 89.5443 36.7943 89.3438 36.6875C89.1458 36.5781 88.875 36.4622 88.5312 36.3398C88.2891 36.2539 88.0755 36.1602 87.8906 36.0586C87.7057 35.9544 87.5508 35.8372 87.4258 35.707C87.3008 35.5768 87.2057 35.4258 87.1406 35.2539C87.0781 35.082 87.0469 34.8854 87.0469 34.6641C87.0469 34.3594 87.1237 34.099 87.2773 33.8828C87.4336 33.6641 87.6484 33.4974 87.9219 33.3828C88.1979 33.2656 88.5143 33.207 88.8711 33.207C89.1758 33.207 89.457 33.2357 89.7148 33.293C89.9753 33.3503 90.2135 33.4271 90.4297 33.5234L90.2227 34.0938C90.0169 34.0078 89.7982 33.9362 89.5664 33.8789C89.3372 33.8216 89.1003 33.793 88.8555 33.793C88.6107 33.793 88.4036 33.8294 88.2344 33.9023C88.0677 33.9727 87.9401 34.0729 87.8516 34.2031C87.763 34.3333 87.7188 34.4883 87.7188 34.668C87.7188 34.8685 87.7604 35.0352 87.8438 35.168C87.9297 35.3008 88.0651 35.4193 88.25 35.5234C88.4375 35.625 88.6849 35.7318 88.9922 35.8438C89.3281 35.9661 89.6133 36.0964 89.8477 36.2344C90.082 36.3698 90.2604 36.5365 90.3828 36.7344C90.5052 36.9297 90.5664 37.1784 90.5664 37.4805ZM90.9609 34.7188H91.6562L92.6016 37.2031C92.6562 37.349 92.707 37.4896 92.7539 37.625C92.8008 37.7578 92.8424 37.8854 92.8789 38.0078C92.9154 38.1302 92.944 38.2487 92.9648 38.3633H92.9922C93.0286 38.2331 93.0807 38.0625 93.1484 37.8516C93.2161 37.638 93.2891 37.4206 93.3672 37.1992L94.2617 34.7188H94.9609L93.0977 39.6289C92.9987 39.8919 92.8828 40.1211 92.75 40.3164C92.6198 40.5117 92.4609 40.6615 92.2734 40.7656C92.0859 40.8724 91.8594 40.9258 91.5938 40.9258C91.4714 40.9258 91.3633 40.918 91.2695 40.9023C91.1758 40.8893 91.0951 40.8737 91.0273 40.8555V40.3359C91.0846 40.349 91.1536 40.3607 91.2344 40.3711C91.3177 40.3815 91.4036 40.3867 91.4922 40.3867C91.6536 40.3867 91.793 40.3555 91.9102 40.293C92.0299 40.2331 92.1328 40.1445 92.2188 40.0273C92.3047 39.9102 92.3789 39.7708 92.4414 39.6094L92.6758 39.0078L90.9609 34.7188ZM98.4141 37.8281C98.4141 38.1016 98.3451 38.332 98.207 38.5195C98.0716 38.7044 97.8763 38.8438 97.6211 38.9375C97.3685 39.0312 97.0664 39.0781 96.7148 39.0781C96.4154 39.0781 96.1562 39.0547 95.9375 39.0078C95.7188 38.9609 95.5273 38.8945 95.3633 38.8086V38.2109C95.5378 38.2969 95.7461 38.375 95.9883 38.4453C96.2305 38.5156 96.4779 38.5508 96.7305 38.5508C97.1003 38.5508 97.3685 38.4909 97.5352 38.3711C97.7018 38.2513 97.7852 38.0885 97.7852 37.8828C97.7852 37.7656 97.7513 37.6628 97.6836 37.5742C97.6185 37.4831 97.5078 37.3958 97.3516 37.3125C97.1953 37.2266 96.9792 37.1328 96.7031 37.0312C96.4297 36.9271 96.1927 36.8242 95.9922 36.7227C95.7943 36.6185 95.6406 36.4922 95.5312 36.3438C95.4245 36.1953 95.3711 36.0026 95.3711 35.7656C95.3711 35.4036 95.5169 35.1263 95.8086 34.9336C96.1029 34.7383 96.4883 34.6406 96.9648 34.6406C97.2227 34.6406 97.4635 34.6667 97.6875 34.7188C97.9141 34.7682 98.125 34.8359 98.3203 34.9219L98.1016 35.4414C97.9245 35.3659 97.7357 35.3021 97.5352 35.25C97.3346 35.1979 97.1302 35.1719 96.9219 35.1719C96.6224 35.1719 96.3919 35.2214 96.2305 35.3203C96.0716 35.4193 95.9922 35.5547 95.9922 35.7266C95.9922 35.8594 96.0286 35.9688 96.1016 36.0547C96.1771 36.1406 96.2969 36.2214 96.4609 36.2969C96.625 36.3724 96.8411 36.4609 97.1094 36.5625C97.3776 36.6615 97.6094 36.7643 97.8047 36.8711C98 36.9753 98.1497 37.1029 98.2539 37.2539C98.3607 37.4023 98.4141 37.5938 98.4141 37.8281ZM100.84 38.5469C100.947 38.5469 101.056 38.5378 101.168 38.5195C101.28 38.5013 101.371 38.4792 101.441 38.4531V38.957C101.366 38.9909 101.26 39.0195 101.125 39.043C100.992 39.0664 100.862 39.0781 100.734 39.0781C100.508 39.0781 100.302 39.0391 100.117 38.9609C99.9323 38.8802 99.7839 38.7448 99.6719 38.5547C99.5625 38.3646 99.5078 38.1016 99.5078 37.7656V35.2266H98.8984V34.9102L99.5117 34.6562L99.7695 33.7266H100.16V34.7188H101.414V35.2266H100.16V37.7461C100.16 38.0143 100.221 38.2148 100.344 38.3477C100.469 38.4805 100.634 38.5469 100.84 38.5469ZM103.957 34.6406C104.322 34.6406 104.634 34.7214 104.895 34.8828C105.155 35.0443 105.354 35.2708 105.492 35.5625C105.63 35.8516 105.699 36.1901 105.699 36.5781V36.9805H102.742C102.75 37.4831 102.875 37.8659 103.117 38.1289C103.359 38.3919 103.701 38.5234 104.141 38.5234C104.411 38.5234 104.651 38.4987 104.859 38.4492C105.068 38.3997 105.284 38.3268 105.508 38.2305V38.8008C105.292 38.8971 105.077 38.9674 104.863 39.0117C104.652 39.056 104.402 39.0781 104.113 39.0781C103.702 39.0781 103.342 38.9948 103.035 38.8281C102.73 38.6589 102.493 38.4115 102.324 38.0859C102.155 37.7604 102.07 37.362 102.07 36.8906C102.07 36.4297 102.147 36.0312 102.301 35.6953C102.457 35.3568 102.676 35.0964 102.957 34.9141C103.241 34.7318 103.574 34.6406 103.957 34.6406ZM103.949 35.1719C103.603 35.1719 103.327 35.2852 103.121 35.5117C102.915 35.7383 102.793 36.0547 102.754 36.4609H105.02C105.017 36.2057 104.977 35.9818 104.898 35.7891C104.823 35.5938 104.707 35.4427 104.551 35.3359C104.395 35.2266 104.194 35.1719 103.949 35.1719ZM111.449 34.6406C111.921 34.6406 112.276 34.7643 112.516 35.0117C112.755 35.2565 112.875 35.651 112.875 36.1953V39H112.234V36.2266C112.234 35.8802 112.159 35.6211 112.008 35.4492C111.859 35.2747 111.638 35.1875 111.344 35.1875C110.93 35.1875 110.629 35.3073 110.441 35.5469C110.254 35.7865 110.16 36.1393 110.16 36.6055V39H109.516V36.2266C109.516 35.9948 109.482 35.8021 109.414 35.6484C109.349 35.4948 109.25 35.3802 109.117 35.3047C108.987 35.2266 108.822 35.1875 108.621 35.1875C108.337 35.1875 108.109 35.2461 107.938 35.3633C107.766 35.4805 107.641 35.6549 107.562 35.8867C107.487 36.1159 107.449 36.3984 107.449 36.7344V39H106.801V34.7188H107.324L107.422 35.3242H107.457C107.543 35.1758 107.651 35.0508 107.781 34.9492C107.911 34.8477 108.057 34.7708 108.219 34.7188C108.38 34.6667 108.552 34.6406 108.734 34.6406C109.06 34.6406 109.332 34.7018 109.551 34.8242C109.772 34.944 109.932 35.1276 110.031 35.375H110.066C110.207 35.1276 110.4 34.944 110.645 34.8242C110.889 34.7018 111.158 34.6406 111.449 34.6406Z" fill="white"/>
<path d="M21 2H35.5946L15.5946 22L35.5946 42H21L11 32L1 42V22V2L11 12L21 2Z" fill="white"/>
<path d="M1 22V2L11 12M1 22L11 12M1 22L11 32M1 22L1 42L11 32M11 12L21 2H35.5946L15.5946 22L35.5946 42H21L11 32" stroke="#37517E"/>
</svg>
